<svg xmlns="http://www.w3.org/2000/svg" version="1.1" xmlns:xlink="http://www.w3.org/1999/xlink" xmlns:svgjs="http://svgjs.dev/svgjs" width="2000" height="717" viewBox="0 0 2000 717"><g transform="matrix(1,0,0,1,-1.2121212121212466,0.3879250434005712)"><svg viewBox="0 0 396 142" data-background-color="#ffffff" preserveAspectRatio="xMidYMid meet" height="717" width="2000" xmlns="http://www.w3.org/2000/svg" xmlns:xlink="http://www.w3.org/1999/xlink"><g id="tight-bounds" transform="matrix(1,0,0,1,0.2400000000000091,-0.07682755392312401)"><svg viewBox="0 0 395.52 142.15365510784625" height="142.15365510784625" width="395.52"><g><svg viewBox="0 0 651.4528109094865 234.13834496628266" height="142.15365510784625" width="395.52"><g><rect width="8.29324830713488" height="234.13834496628266" x="233.9763470801166" y="0" fill="#ffffff" opacity="1" stroke-width="0" stroke="transparent" fill-opacity="1" class="rect-qz-0" data-fill-palette-color="primary" rx="1%" id="qz-0" data-palette-color="#ffffff"></rect></g><g transform="matrix(1,0,0,1,263.97966948969884,0.5824336939459585)"><svg viewBox="0 0 387.4731414197876 232.97347757839074" height="232.97347757839074" width="387.4731414197876"><g id="textblocktransform"><svg viewBox="0 0 387.4731414197876 232.97347757839074" height="232.97347757839074" width="387.4731414197876" id="textblock"><g><svg viewBox="0 0 387.4731414197876 198.76400000000004" height="198.76400000000004" width="387.4731414197876"><g transform="matrix(1,0,0,1,0,0)"><svg width="387.4731414197876" viewBox="2.5899999999999985 -32.96 156.66000000000003 73.63" height="198.76400000000004" data-palette-color="#ffffff"><svg></svg><svg></svg><g class="wordmark-text-0" data-fill-palette-color="primary" id="text-0"><path d="M21.56-7.3v0c0 2.493-0.93 4.413-2.79 5.76-1.853 1.353-4.457 2.03-7.81 2.03v0c-3.547 0-6.313-0.563-8.3-1.69v0-3.76c1.287 0.653 2.667 1.167 4.14 1.54 1.473 0.373 2.893 0.56 4.26 0.56v0c2.113 0 3.74-0.337 4.88-1.01 1.14-0.673 1.71-1.703 1.71-3.09v0c0-1.04-0.45-1.93-1.35-2.67-0.907-0.74-2.67-1.617-5.29-2.63v0c-2.487-0.927-4.257-1.737-5.31-2.43-1.047-0.687-1.827-1.47-2.34-2.35-0.513-0.88-0.77-1.93-0.77-3.15v0c0-2.18 0.887-3.9 2.66-5.16 1.773-1.267 4.207-1.9 7.3-1.9v0c2.88 0 5.697 0.587 8.45 1.76v0l-1.44 3.3c-2.687-1.107-5.12-1.66-7.3-1.66v0c-1.92 0-3.37 0.3-4.35 0.9-0.973 0.6-1.46 1.43-1.46 2.49v0c0 0.72 0.18 1.33 0.54 1.83 0.367 0.507 0.957 0.987 1.77 1.44 0.82 0.46 2.383 1.12 4.69 1.98v0c3.173 1.153 5.32 2.317 6.44 3.49 1.113 1.173 1.67 2.647 1.67 4.42zM66.31 0h-4.05v-17.41c0-2.133-0.457-3.73-1.37-4.79-0.913-1.067-2.33-1.6-4.25-1.6v0c-2.52 0-4.383 0.723-5.59 2.17-1.207 1.447-1.81 3.677-1.81 6.69v0 14.94h-4.05v-17.41c0-2.133-0.457-3.73-1.37-4.79-0.907-1.067-2.33-1.6-4.27-1.6v0c-2.54 0-4.4 0.76-5.58 2.28-1.18 1.52-1.77 4.013-1.77 7.48v0 14.04h-4.05v-26.76h3.3l0.65 3.66h0.2c0.767-1.3 1.843-2.317 3.23-3.05 1.393-0.733 2.953-1.1 4.68-1.1v0c4.18 0 6.913 1.513 8.2 4.54v0h0.2c0.793-1.393 1.95-2.5 3.47-3.32 1.513-0.813 3.237-1.22 5.17-1.22v0c3.027 0 5.293 0.78 6.8 2.34 1.507 1.553 2.26 4.037 2.26 7.45v0zM94.12 0h-3.01l-0.8-3.81h-0.2c-1.333 1.68-2.663 2.817-3.99 3.41-1.327 0.593-2.983 0.89-4.97 0.89v0c-2.653 0-4.733-0.683-6.24-2.05-1.5-1.367-2.25-3.313-2.25-5.84v0c0-5.4 4.32-8.23 12.96-8.49v0l4.54-0.15v-1.66c0-2.1-0.45-3.65-1.35-4.65-0.907-1-2.353-1.5-4.34-1.5v0c-2.227 0-4.75 0.683-7.57 2.05v0l-1.24-3.1c1.32-0.72 2.763-1.283 4.33-1.69 1.573-0.407 3.15-0.61 4.73-0.61v0c3.187 0 5.55 0.71 7.09 2.13 1.54 1.413 2.31 3.683 2.31 6.81v0zM81.96-2.86v0c2.52 0 4.5-0.69 5.94-2.07 1.44-1.387 2.16-3.323 2.16-5.81v0-2.42l-4.05 0.17c-3.22 0.113-5.543 0.613-6.97 1.5-1.427 0.887-2.14 2.267-2.14 4.14v0c0 1.467 0.443 2.583 1.33 3.35 0.893 0.76 2.137 1.14 3.73 1.14zM114.67-27.25v0c1.193 0 2.26 0.1 3.2 0.3v0l-0.56 3.76c-1.107-0.247-2.083-0.37-2.93-0.37v0c-2.167 0-4.017 0.88-5.55 2.64-1.54 1.753-2.31 3.94-2.31 6.56v0 14.36h-4.05v-26.76h3.34l0.46 4.96h0.2c0.993-1.74 2.19-3.083 3.59-4.03 1.4-0.947 2.937-1.42 4.61-1.42zM131.52-2.86v0c0.713 0 1.403-0.053 2.07-0.16 0.667-0.1 1.197-0.207 1.59-0.32v0 3.1c-0.44 0.207-1.087 0.38-1.94 0.52-0.853 0.14-1.623 0.21-2.31 0.21v0c-5.173 0-7.76-2.727-7.76-8.18v0-15.92h-3.83v-1.95l3.83-1.69 1.71-5.71h2.34v6.2h7.77v3.15h-7.77v15.75c0 1.613 0.383 2.85 1.15 3.71 0.767 0.86 1.817 1.29 3.15 1.29z" fill="#ffffff" fill-rule="nonzero" stroke="none" stroke-width="1" stroke-linecap="butt" stroke-linejoin="miter" stroke-miterlimit="10" stroke-dasharray="" stroke-dashoffset="0" font-family="none" font-weight="none" font-size="none" text-anchor="none" style="mix-blend-mode: normal" data-fill-palette-color="primary" opacity="1"></path><path transform="translate(0,40.18)" d="M21.56-7.3v0c0 2.493-0.93 4.413-2.79 5.76-1.853 1.353-4.457 2.03-7.81 2.03v0c-3.547 0-6.313-0.563-8.3-1.69v0-3.76c1.287 0.653 2.667 1.167 4.14 1.54 1.473 0.373 2.893 0.56 4.26 0.56v0c2.113 0 3.74-0.337 4.88-1.01 1.14-0.673 1.71-1.703 1.71-3.09v0c0-1.04-0.45-1.93-1.35-2.67-0.907-0.74-2.67-1.617-5.29-2.63v0c-2.487-0.927-4.257-1.737-5.31-2.43-1.047-0.687-1.827-1.47-2.34-2.35-0.513-0.88-0.77-1.93-0.77-3.15v0c0-2.18 0.887-3.9 2.66-5.16 1.773-1.267 4.207-1.9 7.3-1.9v0c2.88 0 5.697 0.587 8.45 1.76v0l-1.44 3.3c-2.687-1.107-5.12-1.66-7.3-1.66v0c-1.92 0-3.37 0.3-4.35 0.9-0.973 0.6-1.46 1.43-1.46 2.49v0c0 0.72 0.18 1.33 0.54 1.83 0.367 0.507 0.957 0.987 1.77 1.44 0.82 0.46 2.383 1.12 4.69 1.98v0c3.173 1.153 5.32 2.317 6.44 3.49 1.113 1.173 1.67 2.647 1.67 4.42zM39.45 0.49v0c-3.953 0-7.073-1.207-9.36-3.62-2.287-2.407-3.43-5.75-3.43-10.03v0c0-4.313 1.063-7.74 3.19-10.28 2.12-2.54 4.97-3.81 8.55-3.81v0c3.353 0 6.007 1.103 7.96 3.31 1.953 2.207 2.93 5.117 2.93 8.73v0 2.56h-18.43c0.08 3.147 0.873 5.533 2.38 7.16 1.507 1.627 3.627 2.44 6.36 2.44v0c2.88 0 5.727-0.603 8.54-1.81v0 3.61c-1.427 0.62-2.78 1.067-4.06 1.34-1.28 0.267-2.823 0.4-4.63 0.4zM38.35-23.85v0c-2.147 0-3.857 0.7-5.13 2.1-1.28 1.4-2.033 3.337-2.26 5.81v0h13.99c0-2.56-0.57-4.517-1.71-5.87-1.14-1.36-2.77-2.04-4.89-2.04zM68.41-27.25v0c1.187 0 2.253 0.1 3.2 0.3v0l-0.57 3.76c-1.107-0.247-2.08-0.37-2.92-0.37v0c-2.167 0-4.02 0.88-5.56 2.64-1.54 1.753-2.31 3.94-2.31 6.56v0 14.36h-4.05v-26.76h3.35l0.46 4.96h0.2c0.987-1.74 2.18-3.083 3.58-4.03 1.4-0.947 2.94-1.42 4.62-1.42zM87.21 0h-4.74l-10.16-26.76h4.35l5.76 15.87c1.307 3.713 2.073 6.123 2.3 7.23v0h0.19c0.18-0.867 0.747-2.653 1.7-5.36 0.953-2.713 3.09-8.627 6.41-17.74v0h4.34zM105.71-26.76v26.76h-4.05v-26.76zM101.32-34.01v0c0-0.927 0.227-1.607 0.68-2.04 0.46-0.427 1.03-0.64 1.71-0.64v0c0.653 0 1.217 0.217 1.69 0.65 0.467 0.44 0.7 1.117 0.7 2.03v0c0 0.913-0.233 1.593-0.7 2.04-0.473 0.447-1.037 0.67-1.69 0.67v0c-0.68 0-1.25-0.223-1.71-0.67-0.453-0.447-0.68-1.127-0.68-2.04zM125 0.49v0c-3.873 0-6.873-1.193-9-3.58-2.12-2.387-3.18-5.76-3.18-10.12v0c0-4.473 1.077-7.93 3.23-10.37 2.16-2.447 5.233-3.67 9.22-3.67v0c1.287 0 2.573 0.14 3.86 0.42 1.28 0.273 2.287 0.6 3.02 0.98v0l-1.24 3.44c-0.893-0.36-1.87-0.657-2.93-0.89-1.06-0.24-1.997-0.36-2.81-0.36v0c-5.433 0-8.15 3.467-8.15 10.4v0c0 3.287 0.663 5.81 1.99 7.57 1.327 1.76 3.29 2.64 5.89 2.64v0c2.233 0 4.52-0.48 6.86-1.44v0 3.59c-1.787 0.927-4.04 1.39-6.76 1.39zM149.41 0.49v0c-3.953 0-7.073-1.207-9.36-3.62-2.287-2.407-3.43-5.75-3.43-10.03v0c0-4.313 1.063-7.74 3.19-10.28 2.12-2.54 4.97-3.81 8.55-3.81v0c3.353 0 6.007 1.103 7.96 3.31 1.953 2.207 2.93 5.117 2.93 8.73v0 2.56h-18.43c0.08 3.147 0.873 5.533 2.38 7.16 1.507 1.627 3.627 2.44 6.36 2.44v0c2.88 0 5.73-0.603 8.55-1.81v0 3.61c-1.433 0.62-2.79 1.067-4.07 1.34-1.28 0.267-2.823 0.4-4.63 0.4zM148.32-23.85v0c-2.153 0-3.867 0.7-5.14 2.1-1.28 1.4-2.033 3.337-2.26 5.81v0h13.99c0-2.56-0.57-4.517-1.71-5.87-1.14-1.36-2.767-2.04-4.88-2.04z" fill="#ffffff" fill-rule="nonzero" stroke="none" stroke-width="1" stroke-linecap="butt" stroke-linejoin="miter" stroke-miterlimit="10" stroke-dasharray="" stroke-dashoffset="0" font-family="none" font-weight="none" font-size="none" text-anchor="none" style="mix-blend-mode: normal" data-fill-palette-color="primary" opacity="1"></path></g></svg></g></svg></g><g transform="matrix(1,0,0,1,0,220.47407410244736)"><svg viewBox="0 0 227.4854813275573 12.499403475943373" height="12.499403475943373" width="227.4854813275573"><g transform="matrix(1,0,0,1,0,0)"><svg width="227.4854813275573" viewBox="4.3 -37.99 909.8900000000001 50" height="12.499403475943373" data-palette-color="#ffffff"><path d="M42.46 0L38.4 0 38.4-17.41Q38.4-20.61 37.04-22.2 35.67-23.8 32.79-23.8L32.79-23.8Q29-23.8 27.2-21.63 25.39-19.46 25.39-14.94L25.39-14.94 25.39 0 21.34 0 21.34-17.41Q21.34-20.61 19.97-22.2 18.6-23.8 15.7-23.8L15.7-23.8Q11.89-23.8 10.12-21.52 8.35-19.24 8.35-14.04L8.35-14.04 8.35 0 4.3 0 4.3-26.76 7.59-26.76 8.25-23.1 8.45-23.1Q9.59-25.05 11.68-26.15 13.77-27.25 16.36-27.25L16.36-27.25Q22.63-27.25 24.56-22.71L24.56-22.71 24.76-22.71Q25.95-24.8 28.22-26.03 30.49-27.25 33.4-27.25L33.4-27.25Q37.94-27.25 40.2-24.91 42.46-22.58 42.46-17.46L42.46-17.46 42.46 0ZM70.26 0L67.26 0 66.45-3.81 66.26-3.81Q64.26-1.29 62.27-0.4 60.28 0.49 57.3 0.49L57.3 0.49Q53.32 0.49 51.06-1.56 48.8-3.61 48.8-7.4L48.8-7.4Q48.8-15.5 61.77-15.89L61.77-15.89 66.31-16.04 66.31-17.7Q66.31-20.85 64.95-22.35 63.6-23.85 60.62-23.85L60.62-23.85Q57.27-23.85 53.05-21.8L53.05-21.8 51.8-24.9Q53.78-25.98 56.14-26.59 58.49-27.2 60.86-27.2L60.86-27.2Q65.65-27.2 67.95-25.07 70.26-22.95 70.26-18.26L70.26-18.26 70.26 0ZM58.1-2.86L58.1-2.86Q61.89-2.86 64.05-4.93 66.21-7.01 66.21-10.74L66.21-10.74 66.21-13.16 62.16-12.99Q57.32-12.82 55.19-11.49 53.05-10.16 53.05-7.35L53.05-7.35Q53.05-5.15 54.38-4 55.71-2.86 58.1-2.86ZM90.82-27.25L90.82-27.25Q92.6-27.25 94.01-26.95L94.01-26.95 93.45-23.19Q91.79-23.56 90.52-23.56L90.52-23.56Q87.28-23.56 84.97-20.92 82.66-18.29 82.66-14.36L82.66-14.36 82.66 0 78.61 0 78.61-26.76 81.95-26.76 82.42-21.8 82.61-21.8Q84.1-24.41 86.2-25.83 88.3-27.25 90.82-27.25ZM102.82-13.7L103.02-13.7Q104.07-15.19 106.22-17.6L106.22-17.6 114.86-26.76 119.67-26.76 108.83-15.36 120.43 0 115.52 0 106.07-12.65 103.02-10.01 103.02 0 99.02 0 99.02-37.99 103.02-37.99 103.02-17.85Q103.02-16.5 102.82-13.7L102.82-13.7ZM136.56 0.49L136.56 0.49Q130.63 0.49 127.2-3.13 123.77-6.74 123.77-13.16L123.77-13.16Q123.77-19.63 126.96-23.44 130.14-27.25 135.51-27.25L135.51-27.25Q140.54-27.25 143.47-23.94 146.4-20.63 146.4-15.21L146.4-15.21 146.4-12.65 127.97-12.65Q128.09-7.93 130.35-5.49 132.61-3.05 136.71-3.05L136.71-3.05Q141.03-3.05 145.25-4.86L145.25-4.86 145.25-1.25Q143.11-0.32 141.19 0.09 139.27 0.49 136.56 0.49ZM135.46-23.85L135.46-23.85Q132.24-23.85 130.32-21.75 128.41-19.65 128.07-15.94L128.07-15.94 142.06-15.94Q142.06-19.78 140.35-21.81 138.64-23.85 135.46-23.85ZM161.95-2.86L161.95-2.86Q163.02-2.86 164.03-3.02 165.03-3.17 165.61-3.34L165.61-3.34 165.61-0.24Q164.95 0.07 163.67 0.28 162.39 0.49 161.36 0.49L161.36 0.49Q153.6 0.49 153.6-7.69L153.6-7.69 153.6-23.61 149.77-23.61 149.77-25.56 153.6-27.25 155.31-32.96 157.65-32.96 157.65-26.76 165.42-26.76 165.42-23.61 157.65-23.61 157.65-7.86Q157.65-5.44 158.8-4.15 159.95-2.86 161.95-2.86ZM201.2-7.3L201.2-7.3Q201.2-3.56 198.42-1.54 195.64 0.49 190.61 0.49L190.61 0.49Q185.29 0.49 182.31-1.2L182.31-1.2 182.31-4.96Q184.24-3.98 186.44-3.42 188.65-2.86 190.71-2.86L190.71-2.86Q193.88-2.86 195.59-3.87 197.3-4.88 197.3-6.96L197.3-6.96Q197.3-8.52 195.94-9.63 194.59-10.74 190.66-12.26L190.66-12.26Q186.92-13.65 185.35-14.69 183.77-15.72 183-17.04 182.23-18.36 182.23-20.19L182.23-20.19Q182.23-23.46 184.89-25.35 187.56-27.25 192.19-27.25L192.19-27.25Q196.52-27.25 200.64-25.49L200.64-25.49 199.2-22.19Q195.17-23.85 191.9-23.85L191.9-23.85Q189.02-23.85 187.56-22.95 186.09-22.05 186.09-20.46L186.09-20.46Q186.09-19.38 186.64-18.63 187.19-17.87 188.41-17.19 189.63-16.5 193.1-15.21L193.1-15.21Q197.86-13.48 199.53-11.72 201.2-9.96 201.2-7.3ZM219.1 0.49L219.1 0.49Q213.16 0.49 209.73-3.13 206.3-6.74 206.3-13.16L206.3-13.16Q206.3-19.63 209.49-23.44 212.68-27.25 218.05-27.25L218.05-27.25Q223.08-27.25 226.01-23.94 228.94-20.63 228.94-15.21L228.94-15.21 228.94-12.65 210.5-12.65Q210.62-7.93 212.88-5.49 215.14-3.05 219.24-3.05L219.24-3.05Q223.56-3.05 227.79-4.86L227.79-4.86 227.79-1.25Q225.64-0.32 223.72 0.09 221.81 0.49 219.1 0.49ZM218-23.85L218-23.85Q214.77-23.85 212.86-21.75 210.94-19.65 210.6-15.94L210.6-15.94 224.59-15.94Q224.59-19.78 222.88-21.81 221.17-23.85 218-23.85ZM248.05-27.25L248.05-27.25Q249.83-27.25 251.25-26.95L251.25-26.95 250.69-23.19Q249.03-23.56 247.76-23.56L247.76-23.56Q244.51-23.56 242.2-20.92 239.89-18.29 239.89-14.36L239.89-14.36 239.89 0 235.84 0 235.84-26.76 239.19-26.76 239.65-21.8 239.85-21.8Q241.33-24.41 243.43-25.83 245.53-27.25 248.05-27.25ZM266.85 0L262.11 0 251.95-26.76 256.3-26.76 262.06-10.89Q264.01-5.32 264.35-3.66L264.35-3.66 264.55-3.66Q264.82-4.96 266.25-9.02 267.68-13.09 272.66-26.76L272.66-26.76 277-26.76 266.85 0ZM285.35-26.76L285.35 0 281.3 0 281.3-26.76 285.35-26.76ZM280.95-34.01L280.95-34.01Q280.95-35.4 281.64-36.05 282.32-36.69 283.35-36.69L283.35-36.69Q284.32-36.69 285.03-36.04 285.74-35.38 285.74-34.01L285.74-34.01Q285.74-32.64 285.03-31.97 284.32-31.3 283.35-31.3L283.35-31.3Q282.32-31.3 281.64-31.97 280.95-32.64 280.95-34.01ZM304.63 0.49L304.63 0.49Q298.82 0.49 295.64-3.09 292.45-6.67 292.45-13.21L292.45-13.21Q292.45-19.92 295.69-23.58 298.92-27.25 304.9-27.25L304.9-27.25Q306.83-27.25 308.76-26.83 310.69-26.42 311.79-25.85L311.79-25.85 310.54-22.41Q309.2-22.95 307.61-23.3 306.02-23.66 304.8-23.66L304.8-23.66Q296.65-23.66 296.65-13.26L296.65-13.26Q296.65-8.33 298.64-5.69 300.63-3.05 304.54-3.05L304.54-3.05Q307.88-3.05 311.4-4.49L311.4-4.49 311.4-0.9Q308.71 0.49 304.63 0.49ZM329.04 0.49L329.04 0.49Q323.11 0.49 319.68-3.13 316.25-6.74 316.25-13.16L316.25-13.16Q316.25-19.63 319.44-23.44 322.62-27.25 327.99-27.25L327.99-27.25Q333.02-27.25 335.95-23.94 338.88-20.63 338.88-15.21L338.88-15.21 338.88-12.65 320.45-12.65Q320.57-7.93 322.83-5.49 325.09-3.05 329.19-3.05L329.19-3.05Q333.51-3.05 337.74-4.86L337.74-4.86 337.74-1.25Q335.59-0.32 333.67 0.09 331.75 0.49 329.04 0.49ZM327.95-23.85L327.95-23.85Q324.72-23.85 322.81-21.75 320.89-19.65 320.55-15.94L320.55-15.94 334.54-15.94Q334.54-19.78 332.83-21.81 331.12-23.85 327.95-23.85ZM378.23 0L375.23 0 374.43-3.81 374.23-3.81Q372.23-1.29 370.24-0.4 368.25 0.49 365.27 0.49L365.27 0.49Q361.29 0.49 359.03-1.56 356.77-3.61 356.77-7.4L356.77-7.4Q356.77-15.5 369.74-15.89L369.74-15.89 374.28-16.04 374.28-17.7Q374.28-20.85 372.92-22.35 371.57-23.85 368.59-23.85L368.59-23.85Q365.25-23.85 361.02-21.8L361.02-21.8 359.78-24.9Q361.75-25.98 364.11-26.59 366.47-27.2 368.83-27.2L368.83-27.2Q373.62-27.2 375.93-25.07 378.23-22.95 378.23-18.26L378.23-18.26 378.23 0ZM366.08-2.86L366.08-2.86Q369.86-2.86 372.02-4.93 374.18-7.01 374.18-10.74L374.18-10.74 374.18-13.16 370.13-12.99Q365.29-12.82 363.16-11.49 361.02-10.16 361.02-7.35L361.02-7.35Q361.02-5.15 362.35-4 363.68-2.86 366.08-2.86ZM399.03 0.49L399.03 0.49Q396.42 0.49 394.26-0.48 392.1-1.44 390.63-3.44L390.63-3.44 390.34-3.44Q390.63-1.1 390.63 1L390.63 1 390.63 12.01 386.58 12.01 386.58-26.76 389.88-26.76 390.44-23.1 390.63-23.1Q392.2-25.29 394.27-26.27 396.35-27.25 399.03-27.25L399.03-27.25Q404.35-27.25 407.25-23.61 410.14-19.97 410.14-13.4L410.14-13.4Q410.14-6.81 407.2-3.16 404.26 0.49 399.03 0.49ZM398.45-23.8L398.45-23.8Q394.34-23.8 392.51-21.53 390.68-19.26 390.63-14.31L390.63-14.31 390.63-13.4Q390.63-7.76 392.51-5.33 394.39-2.91 398.54-2.91L398.54-2.91Q402.01-2.91 403.98-5.71 405.94-8.52 405.94-13.45L405.94-13.45Q405.94-18.46 403.98-21.13 402.01-23.8 398.45-23.8ZM429.67 0.49L429.67 0.49Q427.06 0.49 424.9-0.48 422.74-1.44 421.27-3.44L421.27-3.44 420.98-3.44Q421.27-1.1 421.27 1L421.27 1 421.27 12.01 417.22 12.01 417.22-26.76 420.51-26.76 421.08-23.1 421.27-23.1Q422.83-25.29 424.91-26.27 426.98-27.25 429.67-27.25L429.67-27.25Q434.99-27.25 437.88-23.61 440.78-19.97 440.78-13.4L440.78-13.4Q440.78-6.81 437.84-3.16 434.89 0.49 429.67 0.49ZM429.08-23.8L429.08-23.8Q424.98-23.8 423.15-21.53 421.32-19.26 421.27-14.31L421.27-14.31 421.27-13.4Q421.27-7.76 423.15-5.33 425.03-2.91 429.18-2.91L429.18-2.91Q432.65-2.91 434.61-5.71 436.58-8.52 436.58-13.45L436.58-13.45Q436.58-18.46 434.61-21.13 432.65-23.8 429.08-23.8ZM470.95-13.4L470.95-13.4Q470.95-6.86 467.66-3.19 464.36 0.49 458.55 0.49L458.55 0.49Q454.96 0.49 452.18-1.2 449.39-2.88 447.88-6.03 446.37-9.18 446.37-13.4L446.37-13.4Q446.37-19.95 449.64-23.6 452.91-27.25 458.72-27.25L458.72-27.25Q464.33-27.25 467.64-23.51 470.95-19.78 470.95-13.4ZM450.57-13.4L450.57-13.4Q450.57-8.28 452.62-5.59 454.67-2.91 458.65-2.91L458.65-2.91Q462.63-2.91 464.69-5.58 466.75-8.25 466.75-13.4L466.75-13.4Q466.75-18.51 464.69-21.15 462.63-23.8 458.6-23.8L458.6-23.8Q454.62-23.8 452.59-21.19 450.57-18.58 450.57-13.4ZM482.11-26.76L482.11 0 478.05 0 478.05-26.76 482.11-26.76ZM477.71-34.01L477.71-34.01Q477.71-35.4 478.39-36.05 479.08-36.69 480.1-36.69L480.1-36.69Q481.08-36.69 481.79-36.04 482.5-35.38 482.5-34.01L482.5-34.01Q482.5-32.64 481.79-31.97 481.08-31.3 480.1-31.3L480.1-31.3Q479.08-31.3 478.39-31.97 477.71-32.64 477.71-34.01ZM513.06 0L509.01 0 509.01-17.31Q509.01-20.58 507.52-22.19 506.03-23.8 502.86-23.8L502.86-23.8Q498.66-23.8 496.7-21.53 494.75-19.26 494.75-14.04L494.75-14.04 494.75 0 490.7 0 490.7-26.76 493.99-26.76 494.65-23.1 494.85-23.1Q496.09-25.07 498.34-26.16 500.58-27.25 503.34-27.25L503.34-27.25Q508.18-27.25 510.62-24.91 513.06-22.58 513.06-17.46L513.06-17.46 513.06 0ZM530.03-2.86L530.03-2.86Q531.1-2.86 532.1-3.02 533.1-3.17 533.69-3.34L533.69-3.34 533.69-0.24Q533.03 0.07 531.75 0.28 530.47 0.49 529.44 0.49L529.44 0.49Q521.68 0.49 521.68-7.69L521.68-7.69 521.68-23.61 517.84-23.61 517.84-25.56 521.68-27.25 523.38-32.96 525.73-32.96 525.73-26.76 533.49-26.76 533.49-23.61 525.73-23.61 525.73-7.86Q525.73-5.44 526.88-4.15 528.02-2.86 530.03-2.86ZM550.34 0.49L550.34 0.49Q544.4 0.49 540.97-3.13 537.54-6.74 537.54-13.16L537.54-13.16Q537.54-19.63 540.73-23.44 543.91-27.25 549.29-27.25L549.29-27.25Q554.32-27.25 557.24-23.94 560.17-20.63 560.17-15.21L560.17-15.21 560.17-12.65 541.74-12.65Q541.86-7.93 544.12-5.49 546.38-3.05 550.48-3.05L550.48-3.05Q554.8-3.05 559.03-4.86L559.03-4.86 559.03-1.25Q556.88-0.32 554.96 0.09 553.05 0.49 550.34 0.49ZM549.24-23.85L549.24-23.85Q546.01-23.85 544.1-21.75 542.18-19.65 541.84-15.94L541.84-15.94 555.83-15.94Q555.83-19.78 554.12-21.81 552.41-23.85 549.24-23.85ZM605.24 0L601.19 0 601.19-17.41Q601.19-20.61 599.82-22.2 598.45-23.8 595.57-23.8L595.57-23.8Q591.79-23.8 589.98-21.63 588.17-19.46 588.17-14.94L588.17-14.94 588.17 0 584.12 0 584.12-17.41Q584.12-20.61 582.75-22.2 581.39-23.8 578.48-23.8L578.48-23.8Q574.67-23.8 572.9-21.52 571.13-19.24 571.13-14.04L571.13-14.04 571.13 0 567.08 0 567.08-26.76 570.38-26.76 571.04-23.1 571.23-23.1Q572.38-25.05 574.47-26.15 576.55-27.25 579.14-27.25L579.14-27.25Q585.42-27.25 587.34-22.71L587.34-22.71 587.54-22.71Q588.74-24.8 591.01-26.03 593.28-27.25 596.18-27.25L596.18-27.25Q600.72-27.25 602.98-24.91 605.24-22.58 605.24-17.46L605.24-17.46 605.24 0ZM624.89 0.49L624.89 0.49Q618.96 0.49 615.53-3.13 612.1-6.74 612.1-13.16L612.1-13.16Q612.1-19.63 615.28-23.44 618.47-27.25 623.84-27.25L623.84-27.25Q628.87-27.25 631.8-23.94 634.73-20.63 634.73-15.21L634.73-15.21 634.73-12.65 616.3-12.65Q616.42-7.93 618.68-5.49 620.94-3.05 625.04-3.05L625.04-3.05Q629.36-3.05 633.58-4.86L633.58-4.86 633.58-1.25Q631.43-0.32 629.52 0.09 627.6 0.49 624.89 0.49ZM623.79-23.85L623.79-23.85Q620.57-23.85 618.65-21.75 616.74-19.65 616.4-15.94L616.4-15.94 630.38-15.94Q630.38-19.78 628.68-21.81 626.97-23.85 623.79-23.85ZM664 0L659.95 0 659.95-17.31Q659.95-20.58 658.46-22.19 656.97-23.8 653.79-23.8L653.79-23.8Q649.6-23.8 647.64-21.53 645.69-19.26 645.69-14.04L645.69-14.04 645.69 0 641.64 0 641.64-26.76 644.93-26.76 645.59-23.1 645.79-23.1Q647.03-25.07 649.28-26.16 651.52-27.25 654.28-27.25L654.28-27.25Q659.12-27.25 661.56-24.91 664-22.58 664-17.46L664-17.46 664 0ZM680.97-2.86L680.97-2.86Q682.04-2.86 683.04-3.02 684.04-3.17 684.63-3.34L684.63-3.34 684.63-0.24Q683.97 0.07 682.69 0.28 681.4 0.49 680.38 0.49L680.38 0.49Q672.62 0.49 672.62-7.69L672.62-7.69 672.62-23.61 668.78-23.61 668.78-25.56 672.62-27.25 674.32-32.96 676.67-32.96 676.67-26.76 684.43-26.76 684.43-23.61 676.67-23.61 676.67-7.86Q676.67-5.44 677.82-4.15 678.96-2.86 680.97-2.86ZM720.22-7.3L720.22-7.3Q720.22-3.56 717.43-1.54 714.65 0.49 709.62 0.49L709.62 0.49Q704.3 0.49 701.32-1.2L701.32-1.2 701.32-4.96Q703.25-3.98 705.46-3.42 707.67-2.86 709.72-2.86L709.72-2.86Q712.89-2.86 714.6-3.87 716.31-4.88 716.31-6.96L716.31-6.96Q716.31-8.52 714.96-9.63 713.6-10.74 709.67-12.26L709.67-12.26Q705.94-13.65 704.36-14.69 702.79-15.72 702.02-17.04 701.25-18.36 701.25-20.19L701.25-20.19Q701.25-23.46 703.91-25.35 706.57-27.25 711.21-27.25L711.21-27.25Q715.53-27.25 719.66-25.49L719.66-25.49 718.22-22.19Q714.19-23.85 710.92-23.85L710.92-23.85Q708.04-23.85 706.57-22.95 705.11-22.05 705.11-20.46L705.11-20.46Q705.11-19.38 705.66-18.63 706.2-17.87 707.43-17.19 708.65-16.5 712.11-15.21L712.11-15.21Q716.87-13.48 718.55-11.72 720.22-9.96 720.22-7.3ZM749.17 0L745.12 0 745.12-17.31Q745.12-20.58 743.63-22.19 742.14-23.8 738.97-23.8L738.97-23.8Q734.74-23.8 732.8-21.51 730.86-19.21 730.86-13.99L730.86-13.99 730.86 0 726.81 0 726.81-37.99 730.86-37.99 730.86-26.49Q730.86-24.41 730.66-23.05L730.66-23.05 730.91-23.05Q732.11-24.98 734.31-26.09 736.52-27.2 739.36-27.2L739.36-27.2Q744.26-27.2 746.72-24.87 749.17-22.53 749.17-17.46L749.17-17.46 749.17 0ZM780.59-13.4L780.59-13.4Q780.59-6.86 777.29-3.19 774 0.49 768.19 0.49L768.19 0.49Q764.6 0.49 761.81-1.2 759.03-2.88 757.52-6.03 756-9.18 756-13.4L756-13.4Q756-19.95 759.28-23.6 762.55-27.25 768.36-27.25L768.36-27.25Q773.97-27.25 777.28-23.51 780.59-19.78 780.59-13.4ZM760.2-13.4L760.2-13.4Q760.2-8.28 762.25-5.59 764.3-2.91 768.28-2.91L768.28-2.91Q772.26-2.91 774.33-5.58 776.39-8.25 776.39-13.4L776.39-13.4Q776.39-18.51 774.33-21.15 772.26-23.8 768.24-23.8L768.24-23.8Q764.26-23.8 762.23-21.19 760.2-18.58 760.2-13.4ZM800.14 0.49L800.14 0.49Q797.53 0.49 795.37-0.48 793.21-1.44 791.74-3.44L791.74-3.44 791.45-3.44Q791.74-1.1 791.74 1L791.74 1 791.74 12.01 787.69 12.01 787.69-26.76 790.99-26.76 791.55-23.1 791.74-23.1Q793.31-25.29 795.38-26.27 797.46-27.25 800.14-27.25L800.14-27.25Q805.46-27.25 808.36-23.61 811.25-19.97 811.25-13.4L811.25-13.4Q811.25-6.81 808.31-3.16 805.37 0.49 800.14 0.49ZM799.56-23.8L799.56-23.8Q795.45-23.8 793.62-21.53 791.79-19.26 791.74-14.31L791.74-14.31 791.74-13.4Q791.74-7.76 793.62-5.33 795.5-2.91 799.65-2.91L799.65-2.91Q803.12-2.91 805.09-5.71 807.05-8.52 807.05-13.45L807.05-13.45Q807.05-18.46 805.09-21.13 803.12-23.8 799.56-23.8ZM830.78 0.49L830.78 0.49Q828.17 0.49 826.01-0.48 823.85-1.44 822.38-3.44L822.38-3.44 822.09-3.44Q822.38-1.1 822.38 1L822.38 1 822.38 12.01 818.33 12.01 818.33-26.76 821.62-26.76 822.19-23.1 822.38-23.1Q823.94-25.29 826.02-26.27 828.09-27.25 830.78-27.25L830.78-27.25Q836.1-27.25 838.99-23.61 841.89-19.97 841.89-13.4L841.89-13.4Q841.89-6.81 838.95-3.16 836 0.49 830.78 0.49ZM830.19-23.8L830.19-23.8Q826.09-23.8 824.26-21.53 822.43-19.26 822.38-14.31L822.38-14.31 822.38-13.4Q822.38-7.76 824.26-5.33 826.14-2.91 830.29-2.91L830.29-2.91Q833.76-2.91 835.72-5.71 837.69-8.52 837.69-13.45L837.69-13.45Q837.69-18.46 835.72-21.13 833.76-23.8 830.19-23.8ZM853.02-26.76L853.02 0 848.97 0 848.97-26.76 853.02-26.76ZM848.62-34.01L848.62-34.01Q848.62-35.4 849.31-36.05 849.99-36.69 851.02-36.69L851.02-36.69Q851.99-36.69 852.7-36.04 853.41-35.38 853.41-34.01L853.41-34.01Q853.41-32.64 852.7-31.97 851.99-31.3 851.02-31.3L851.02-31.3Q849.99-31.3 849.31-31.97 848.62-32.64 848.62-34.01ZM883.97 0L879.92 0 879.92-17.31Q879.92-20.58 878.43-22.19 876.94-23.8 873.77-23.8L873.77-23.8Q869.57-23.8 867.62-21.53 865.66-19.26 865.66-14.04L865.66-14.04 865.66 0 861.61 0 861.61-26.76 864.91-26.76 865.56-23.1 865.76-23.1Q867-25.07 869.25-26.16 871.5-27.25 874.26-27.25L874.26-27.25Q879.09-27.25 881.53-24.91 883.97-22.58 883.97-17.46L883.97-17.46 883.97 0ZM904.94-26.76L914.19-26.76 914.19-24.19 909.24-23.61Q909.92-22.75 910.46-21.37 911-20 911-18.26L911-18.26Q911-14.33 908.31-11.99 905.63-9.64 900.94-9.64L900.94-9.64Q899.74-9.64 898.69-9.84L898.69-9.84Q896.1-8.47 896.1-6.4L896.1-6.4Q896.1-5.3 897.01-4.77 897.91-4.25 900.11-4.25L900.11-4.25 904.84-4.25Q909.19-4.25 911.52-2.42 913.85-0.59 913.85 2.91L913.85 2.91Q913.85 7.35 910.29 9.68 906.72 12.01 899.89 12.01L899.89 12.01Q894.64 12.01 891.79 10.06 888.95 8.11 888.95 4.54L888.95 4.54Q888.95 2.1 890.51 0.32 892.08-1.46 894.91-2.1L894.91-2.1Q893.88-2.56 893.19-3.54 892.49-4.52 892.49-5.81L892.49-5.81Q892.49-7.28 893.27-8.37 894.05-9.47 895.74-10.5L895.74-10.5Q893.66-11.35 892.36-13.4 891.05-15.45 891.05-18.09L891.05-18.09Q891.05-22.49 893.69-24.87 896.32-27.25 901.16-27.25L901.16-27.25Q903.26-27.25 904.94-26.76L904.94-26.76ZM892.86 4.49L892.86 4.49Q892.86 6.67 894.69 7.79 896.52 8.91 899.94 8.91L899.94 8.91Q905.04 8.91 907.49 7.39 909.95 5.86 909.95 3.25L909.95 3.25Q909.95 1.07 908.6 0.23 907.26-0.61 903.55-0.61L903.55-0.61 898.69-0.61Q895.93-0.61 894.39 0.71 892.86 2.03 892.86 4.49ZM895.05-18.19L895.05-18.19Q895.05-15.38 896.64-13.94 898.23-12.5 901.06-12.5L901.06-12.5Q906.99-12.5 906.99-18.26L906.99-18.26Q906.99-24.29 900.99-24.29L900.99-24.29Q898.13-24.29 896.59-22.75 895.05-21.22 895.05-18.19Z" opacity="1" transform="matrix(1,0,0,1,0,0)" fill="#ffffff" class="slogan-text-1" data-fill-palette-color="secondary" id="text-1"></path></svg></g></svg></g></svg></g></svg></g><g transform="matrix(1,0,0,1,0,0.5824336939459585)"><svg viewBox="0 0 212.26627297766927 232.97347757839074" height="232.97347757839074" width="212.26627297766927"><g><svg xmlns="http://www.w3.org/2000/svg" xmlns:xlink="http://www.w3.org/1999/xlink" version="1.1" x="0" y="0" viewBox="9.000121550667213 5.000001904463208 82.0005966443491 89.9999980955368" enable-background="new 0 0 100 100" xml:space="preserve" height="232.97347757839074" width="212.26627297766927" class="icon-icon-0" data-fill-palette-color="accent" id="icon-0"><g fill="#ffffff" data-fill-palette-color="accent"><path d="M27.995 18.967c1.727-0.205 2.644-2.128 2.866-4.203l0.466-4.356c0.284-2.657-1.643-5.062-4.283-5.347l-0.288-0.033c-2.642-0.286-5.036 1.652-5.32 4.308l-0.474 4.39C25.773 14.801 24.567 19.382 27.995 18.967z" fill="#ffffff" data-fill-palette-color="accent"></path><path d="M57.004 88.787c-1.703 0-3.09 1.391-3.09 3.104 0 1.719 1.387 3.109 3.09 3.109 1.704 0 3.086-1.391 3.086-3.109C60.09 90.178 58.708 88.787 57.004 88.787z" fill="#ffffff" data-fill-palette-color="accent"></path><rect x="56.858" y="46.775" width="22.558" height="5.937" fill="#ffffff" data-fill-palette-color="accent"></rect><path d="M80.666 88.787c-1.709 0-3.091 1.391-3.091 3.104 0 1.719 1.382 3.109 3.091 3.109 1.703 0 3.087-1.391 3.087-3.109C83.753 90.178 82.369 88.787 80.666 88.787z" fill="#ffffff" data-fill-palette-color="accent"></path><path d="M84.034 73.904l6.85-17.235c0.337-0.855-0.081-1.824-0.929-2.16-0.203-0.082-0.388-0.125-0.593-0.125h-0.018-9.049H55.339h-3.355l-1.454-9.789c-0.081-0.847-0.79-1.509-1.651-1.509H45.55l-3.492-1.418L31.521 38.61l-3.653-17.886c0.142 2.39-3.557 1.209-5.716-1-3.497-0.614-4.858 2.852-5.021 4.976-0.026 8.746-0.28 17.653-0.372 26.352l7.499 0.08-7.511 1.186-0.002 0.334L9.743 85.402c-1.682 5.25-0.455 6.912 3.146 9.35l9.986-30.665-2.911-9.146L34.55 89.439c1.836 5.203 3.814 5.771 8.146 5.508L30.835 54.146l0.459-10.408c3.568 0.524 6.814 0.966 8.764 1.228l1.685 2.357 3.81 1.115 0.969-2.01h0.927l1.449 9.794c0.008 0.058 0.014 0.109 0.022 0.162l4.34 29.245c0.119 0.833 0.828 1.431 1.644 1.431h27.57c0.918 0 1.661-0.748 1.661-1.673 0-0.922-0.743-1.67-1.661-1.67H56.333l-1.277-8.613h27.389C83.197 75.104 83.83 74.6 84.034 73.904zM79.416 71.758V59.396H56.858v12.361h-1.955c-0.119 0-0.232 0.014-0.341 0.037L52.48 57.726h1.419 1.439 24.957 5.285 1.317l-5.575 14.032H79.416z" fill="#ffffff" data-fill-palette-color="accent"></path></g></svg></g></svg></g></svg></g><defs></defs></svg><rect width="395.52" height="142.15365510784625" fill="none" stroke="none" visibility="hidden"></rect></g></svg></g></svg>